<svg class="ldi-67v8u4" width="498px"  height="498px"  xmlns="http://www.w3.org/2000/svg" xmlns:xlink="http://www.w3.org/1999/xlink" viewBox="0 0 100 100" preserveAspectRatio="xMidYMid" style="background: none;"><!--?xml version="1.0" encoding="utf-8"?--><!--Generator: Adobe Illustrator 21.0.0, SVG Export Plug-In . SVG Version: 6.00 Build 0)--><svg version="1.1" id="圖層_1" xmlns="http://www.w3.org/2000/svg" xmlns:xlink="http://www.w3.org/1999/xlink" x="0px" y="0px" viewBox="0 0 100 100" style="transform-origin: 50px 50px 0px;" xml:space="preserve"><g style="transform-origin: 50px 50px 0px;"><g style="transform-origin: 50px 50px 0px; transform: scale(1);"><g style="transform-origin: 50px 50px 0px;"><g><g class="ld ld-fade" style="transform-origin: 50px 50px 0px; animation-duration: 1.5s; animation-delay: -1.5s; animation-direction: normal;"><rect x="46" y="34" style="fill:#abbd81;stroke:#333;stroke-width:3.5;stroke-miterlimit:10" width="7.8" height="37.1" fill="rgb(171, 189, 129)" stroke="rgb(51, 51, 51)"></rect></g><g style="transform-origin: 50px 50px 0px;"><g><g class="ld ld-fade" style="transform-origin: 50px 50px 0px; animation-duration: 1.5s; animation-delay: -1.42857s; animation-direction: normal;"><path style="fill:#e0e0e0;stroke:#333;stroke-width:3.5;stroke-miterlimit:10" d="M57.7,92.5H42.3c-5.6,0-10.2-4.5-10.2-10.2 V71.2h35.7v11.1C67.8,88,63.3,92.5,57.7,92.5z" stroke="rgb(51, 51, 51)" fill="rgb(224, 224, 224)"></path></g><g class="ld ld-fade" style="transform-origin: 50px 50px 0px; animation-duration: 1.5s; animation-delay: -1.35714s; animation-direction: normal;"><path style="fill:#e0e0e0;stroke:#333;stroke-width:3.5;stroke-miterlimit:10" d="M69.6,72.7H30.4c-2,0-3.5-1.6-3.5-3.5v-2.8 c0-2,1.6-3.5,3.5-3.5h39.2c2,0,3.5,1.6,3.5,3.5v2.8C73.1,71.1,71.5,72.7,69.6,72.7z" stroke="rgb(51, 51, 51)" fill="rgb(224, 224, 224)"></path></g></g></g><g style="transform-origin: 50px 50px 0px;"><g><g class="ld ld-fade" style="transform-origin: 50px 50px 0px; animation-duration: 1.5s; animation-delay: -1.28571s; animation-direction: normal;"><path style="fill:#e15b64;stroke:#333;stroke-width:3.5;stroke-miterlimit:10" d="M48.6,12.7c2.6,4.6-0.6,11.4-0.6,11.4 s-7.5-0.6-10.1-5.2c-2.6-4.6,0.6-11.4,0.6-11.4S45.9,8.1,48.6,12.7z" stroke="rgb(51, 51, 51)" fill="rgb(225, 91, 100)"></path></g><g class="ld ld-fade" style="transform-origin: 50px 50px 0px; animation-duration: 1.5s; animation-delay: -1.21429s; animation-direction: normal;"><path style="fill:#e15b64;stroke:#333;stroke-width:3.5;stroke-miterlimit:10" d="M36.4,21.3c5.3,0,9.6,6.2,9.6,6.2 s-4.3,6.2-9.6,6.2s-9.6-6.2-9.6-6.2S31.2,21.3,36.4,21.3z" stroke="rgb(51, 51, 51)" fill="rgb(225, 91, 100)"></path></g><g class="ld ld-fade" style="transform-origin: 50px 50px 0px; animation-duration: 1.5s; animation-delay: -1.14286s; animation-direction: normal;"><path style="fill:#e15b64;stroke:#333;stroke-width:3.5;stroke-miterlimit:10" d="M37.9,36.2C40.5,31.6,48,31,48,31 s3.2,6.8,0.6,11.4s-10.1,5.2-10.1,5.2S35.2,40.8,37.9,36.2z" stroke="rgb(51, 51, 51)" fill="rgb(225, 91, 100)"></path></g><g class="ld ld-fade" style="transform-origin: 50px 50px 0px; animation-duration: 1.5s; animation-delay: -1.07143s; animation-direction: normal;"><path style="fill:#e15b64;stroke:#333;stroke-width:3.5;stroke-miterlimit:10" d="M51.4,42.4C48.8,37.8,52,31,52,31 s7.5,0.6,10.1,5.2s-0.6,11.4-0.6,11.4S54.1,46.9,51.4,42.4z" stroke="rgb(51, 51, 51)" fill="rgb(225, 91, 100)"></path></g><g class="ld ld-fade" style="transform-origin: 50px 50px 0px; animation-duration: 1.5s; animation-delay: -1s; animation-direction: normal;"><path style="fill:#e15b64;stroke:#333;stroke-width:3.5;stroke-miterlimit:10" d="M63.6,33.7c-5.3,0-9.6-6.2-9.6-6.2 s4.3-6.2,9.6-6.2s9.6,6.2,9.6,6.2S68.8,33.7,63.6,33.7z" stroke="rgb(51, 51, 51)" fill="rgb(225, 91, 100)"></path></g><g class="ld ld-fade" style="transform-origin: 50px 50px 0px; animation-duration: 1.5s; animation-delay: -0.928571s; animation-direction: normal;"><path style="fill:#e15b64;stroke:#333;stroke-width:3.5;stroke-miterlimit:10" d="M62.1,18.9C59.5,23.4,52,24.1,52,24.1 s-3.2-6.8-0.6-11.4s10.1-5.2,10.1-5.2S64.8,14.3,62.1,18.9z" stroke="rgb(51, 51, 51)" fill="rgb(225, 91, 100)"></path></g><g class="ld ld-fade" style="transform-origin: 50px 50px 0px; animation-duration: 1.5s; animation-delay: -0.857143s; animation-direction: normal;"><ellipse transform="matrix(0.866 -0.5 0.5 0.866 -7.0645 28.6878)" style="fill:#f5e169;stroke:#333;stroke-width:3.5;stroke-miterlimit:10" cx="50" cy="27.5" rx="7.5" ry="7.5" stroke="rgb(51, 51, 51)" fill="rgb(245, 225, 105)"></ellipse></g></g></g><metadata xmlns:d="https://loading.io/stock/" class="ld ld-fade" style="transform-origin: 50px 50px 0px; animation-duration: 1.5s; animation-delay: -0.785714s; animation-direction: normal;">
<d:name class="ld ld-fade" style="transform-origin: 50px 50px 0px; animation-duration: 1.5s; animation-delay: -0.714286s; animation-direction: normal;">flower</d:name>
<d:tags class="ld ld-fade" style="transform-origin: 50px 50px 0px; animation-duration: 1.5s; animation-delay: -0.642857s; animation-direction: normal;">flower,sunflower,chrysanthemum,chrysanths,mum,petal,pot,bonsai</d:tags>
<d:license class="ld ld-fade" style="transform-origin: 50px 50px 0px; animation-duration: 1.5s; animation-delay: -0.571429s; animation-direction: normal;">cc-by</d:license>
<d:slug class="ld ld-fade" style="transform-origin: 50px 50px 0px; animation-duration: 1.5s; animation-delay: -0.5s; animation-direction: normal;">67v8u4</d:slug>
</metadata></g></g></g></g><style type="text/css" class="ld ld-fade" style="transform-origin: 50px 50px 0px; animation-duration: 1.5s; animation-delay: -0.428571s; animation-direction: normal;">@keyframes ld-fade {
  0% {
    opacity: 1;
  }
  100% {
    opacity: 0;
  }
}
@-webkit-keyframes ld-fade {
  0% {
    opacity: 1;
  }
  100% {
    opacity: 0;
  }
}
.ld.ld-fade {
  -webkit-animation: ld-fade 1s infinite linear;
  animation: ld-fade 1s infinite linear;
}
</style></svg></svg>