<svg class="ldi-i6011i" width="498px"  height="498px"  xmlns="http://www.w3.org/2000/svg" xmlns:xlink="http://www.w3.org/1999/xlink" viewBox="0 0 100 100" preserveAspectRatio="xMidYMid" style="background: none;"><!--?xml version="1.0" encoding="utf-8"?--><!--Generator: Adobe Illustrator 21.0.0, SVG Export Plug-In . SVG Version: 6.00 Build 0)--><svg version="1.1" id="圖層_1" xmlns="http://www.w3.org/2000/svg" xmlns:xlink="http://www.w3.org/1999/xlink" x="0px" y="0px" viewBox="0 0 100 100" style="transform-origin: 50px 50px 0px;" xml:space="preserve"><g style="transform-origin: 50px 50px 0px;"><g style="transform-origin: 50px 50px 0px; transform: scale(1);"><g style="transform-origin: 50px 50px 0px;"><g><g style="transform-origin: 50px 50px 0px;"><g><g class="ld ld-fade" style="transform-origin: 50px 50px 0px; animation-duration: 1.5s; animation-delay: -1.5s; animation-direction: normal;"><path style="fill:#333" d="M47.5,90l1.1-75.7c0-0.8,0.6-1.4,1.4-1.4c0.8,0,1.4,0.6,1.4,1.4L52.5,90c0,1.4-1.1,2.5-2.5,2.5 C48.7,92.6,47.5,91.5,47.5,90C47.5,90.1,47.5,90,47.5,90z" fill="rgb(51, 51, 51)"></path></g></g></g><g style="transform-origin: 50px 50px 0px;"><g><g class="ld ld-fade" style="transform-origin: 50px 50px 0px; animation-duration: 1.5s; animation-delay: -1.425s; animation-direction: normal;"><path style="fill:#abbd81;stroke:#333;stroke-width:3.5;stroke-miterlimit:10" d="M68.5,23.2c-7.2,4.3-16.1,2.7-16.1,2.7 s2.8-8.6,10-12.9s16.1-2.7,16.1-2.7S75.7,18.9,68.5,23.2z" stroke="rgb(51, 51, 51)" fill="rgb(171, 189, 129)"></path></g><g class="ld ld-fade" style="transform-origin: 50px 50px 0px; animation-duration: 1.5s; animation-delay: -1.35s; animation-direction: normal;"><path style="fill:#abbd81;stroke:#333;stroke-width:3.5;stroke-miterlimit:10" d="M31.5,23.2c7.2,4.3,16.1,2.7,16.1,2.7 s-2.8-8.6-10-12.9s-16.1-2.7-16.1-2.7S24.3,18.9,31.5,23.2z" stroke="rgb(51, 51, 51)" fill="rgb(171, 189, 129)"></path></g></g></g><g style="transform-origin: 50px 50px 0px;"><g><g class="ld ld-fade" style="transform-origin: 50px 50px 0px; animation-duration: 1.5s; animation-delay: -1.275s; animation-direction: normal;"><path style="fill:#abbd81;stroke:#333;stroke-width:3.5;stroke-miterlimit:10" d="M69.5,47.7c-7.6,4.6-17,2.9-17,2.9 s3-9.1,10.6-13.6c7.6-4.6,17-2.9,17-2.9S77.1,43.1,69.5,47.7z" stroke="rgb(51, 51, 51)" fill="rgb(171, 189, 129)"></path></g><g class="ld ld-fade" style="transform-origin: 50px 50px 0px; animation-duration: 1.5s; animation-delay: -1.2s; animation-direction: normal;"><path style="fill:#abbd81;stroke:#333;stroke-width:3.5;stroke-miterlimit:10" d="M30.5,47.7c7.6,4.6,17,2.9,17,2.9 s-3-9.1-10.6-13.6s-17-2.9-17-2.9S22.9,43.1,30.5,47.7z" stroke="rgb(51, 51, 51)" fill="rgb(171, 189, 129)"></path></g></g></g><g style="transform-origin: 50px 50px 0px;"><g><g class="ld ld-fade" style="transform-origin: 50px 50px 0px; animation-duration: 1.5s; animation-delay: -1.125s; animation-direction: normal;"><path style="fill:#abbd81;stroke:#333;stroke-width:3.5;stroke-miterlimit:10" d="M71.4,74.4c-8.4,5-18.7,3.1-18.7,3.1 s3.3-10,11.7-15s18.7-3.1,18.7-3.1S79.8,69.4,71.4,74.4z" stroke="rgb(51, 51, 51)" fill="rgb(171, 189, 129)"></path></g><g class="ld ld-fade" style="transform-origin: 50px 50px 0px; animation-duration: 1.5s; animation-delay: -1.05s; animation-direction: normal;"><path style="fill:#abbd81;stroke:#333;stroke-width:3.5;stroke-miterlimit:10" d="M28.6,74.4c8.4,5,18.7,3.1,18.7,3.1 s-3.3-10-11.7-15s-18.7-3.1-18.7-3.1S20.2,69.4,28.6,74.4z" stroke="rgb(51, 51, 51)" fill="rgb(171, 189, 129)"></path></g></g></g><metadata xmlns:d="https://loading.io/stock/" class="ld ld-fade" style="transform-origin: 50px 50px 0px; animation-duration: 1.5s; animation-delay: -0.975s; animation-direction: normal;">
<d:name class="ld ld-fade" style="transform-origin: 50px 50px 0px; animation-duration: 1.5s; animation-delay: -0.9s; animation-direction: normal;">leaf</d:name>
<d:tags class="ld ld-fade" style="transform-origin: 50px 50px 0px; animation-duration: 1.5s; animation-delay: -0.825s; animation-direction: normal;">leaf,plant,leaves,tree,bud,burgreen,shoot,sprout,stem,grow,newbie,tender</d:tags>
<d:license class="ld ld-fade" style="transform-origin: 50px 50px 0px; animation-duration: 1.5s; animation-delay: -0.75s; animation-direction: normal;">cc-by</d:license>
<d:slug class="ld ld-fade" style="transform-origin: 50px 50px 0px; animation-duration: 1.5s; animation-delay: -0.675s; animation-direction: normal;">i6011i</d:slug>
</metadata></g></g></g></g><style type="text/css" class="ld ld-fade" style="transform-origin: 50px 50px 0px; animation-duration: 1.5s; animation-delay: -0.6s; animation-direction: normal;">@keyframes ld-fade {
  0% {
    opacity: 1;
  }
  100% {
    opacity: 0;
  }
}
@-webkit-keyframes ld-fade {
  0% {
    opacity: 1;
  }
  100% {
    opacity: 0;
  }
}
.ld.ld-fade {
  -webkit-animation: ld-fade 1s infinite linear;
  animation: ld-fade 1s infinite linear;
}
</style></svg></svg>