<svg class="ldi-flzhgz" width="498px"  height="498px"  xmlns="http://www.w3.org/2000/svg" xmlns:xlink="http://www.w3.org/1999/xlink" viewBox="0 0 100 100" preserveAspectRatio="xMidYMid" style="background: none;"><!--?xml version="1.0" encoding="utf-8"?--><!--Generator: Adobe Illustrator 21.0.0, SVG Export Plug-In . SVG Version: 6.00 Build 0)--><svg version="1.1" id="圖層_1" xmlns="http://www.w3.org/2000/svg" xmlns:xlink="http://www.w3.org/1999/xlink" x="0px" y="0px" viewBox="0 0 100 100" style="transform-origin: 50px 50px 0px;" xml:space="preserve"><g style="transform-origin: 50px 50px 0px;"><g style="transform-origin: 50px 50px 0px; transform: scale(1);"><g style="transform-origin: 50px 50px 0px;"><g><g class="ld ld-fade" style="transform-origin: 50px 50px 0px; animation-duration: 1.5s; animation-delay: -1.5s; animation-direction: normal;"><path style="fill:#abbd81;stroke:#333;stroke-width:3;stroke-miterlimit:10" d="M88.8,56.2c-4.4-2.2-16.5-7.3-27.4-3.5 c-6,2.1-10.6,6.5-13.9,10.8V39.3c5.1,0.6,14.5,0.8,21-4.5c7.3-6,8.5-17.2,8.7-21.5c0-1-0.7-1.9-1.6-2c-4.2-0.7-15.5-1.8-22.8,4.2 c-3.8,3.1-5.9,7.6-7.2,11.8h-2.7c-2,0-3.6,1.6-3.6,3.6v0c-1.5-3.1-3.6-6.2-6.6-8.5c-7.2-5.4-17.5-4.4-21.4-3.8 c-0.9,0.1-1.5,0.9-1.4,1.8c0.5,3.9,2.4,14.1,9.7,19.5c6.3,4.7,15,4.6,19.7,4v14.5c-1.3-2.8-3.1-5.6-5.8-7.6 c-6.2-4.6-15-3.9-18.3-3.4c-0.7,0.1-1.3,0.8-1.2,1.5c0.4,3.3,2.2,11.9,8.4,16.6c5.5,4.1,12.9,4,16.9,3.5v19.9h8.2V77.1 c5.8,2.2,14.7,4.4,22.9,1.6C81.3,74.9,87.7,63.4,89.8,59C90.3,57.9,89.9,56.8,88.8,56.2z" fill="rgb(171, 189, 129)" stroke="rgb(51, 51, 51)"></path></g><g class="ld ld-fade" style="transform-origin: 50px 50px 0px; animation-duration: 1.5s; animation-delay: -1.38462s; animation-direction: normal;"><circle style="fill:#e15b64;stroke:#333;stroke-width:3;stroke-miterlimit:10" cx="44.3" cy="25.5" r="9.4" stroke="rgb(51, 51, 51)" fill="rgb(225, 91, 100)"></circle></g><g class="ld ld-fade" style="transform-origin: 50px 50px 0px; animation-duration: 1.5s; animation-delay: -1.26923s; animation-direction: normal;"><circle style="fill:#e15b64;stroke:#333;stroke-width:3;stroke-miterlimit:10" cx="51.2" cy="63.1" r="6.6" stroke="rgb(51, 51, 51)" fill="rgb(225, 91, 100)"></circle></g><g class="ld ld-fade" style="transform-origin: 50px 50px 0px; animation-duration: 1.5s; animation-delay: -1.15385s; animation-direction: normal;"><circle style="fill:#e15b64;stroke:#333;stroke-width:3;stroke-miterlimit:10" cx="39.6" cy="50" r="4.7" stroke="rgb(51, 51, 51)" fill="rgb(225, 91, 100)"></circle></g><metadata xmlns:d="https://loading.io/stock/" class="ld ld-fade" style="transform-origin: 50px 50px 0px; animation-duration: 1.5s; animation-delay: -1.03846s; animation-direction: normal;">
<d:name class="ld ld-fade" style="transform-origin: 50px 50px 0px; animation-duration: 1.5s; animation-delay: -0.923077s; animation-direction: normal;">plant</d:name>
<d:tags class="ld ld-fade" style="transform-origin: 50px 50px 0px; animation-duration: 1.5s; animation-delay: -0.807692s; animation-direction: normal;">plant,fruit,blossom,fertile,fructify,prolific,plentiful,seed,bud</d:tags>
<d:license class="ld ld-fade" style="transform-origin: 50px 50px 0px; animation-duration: 1.5s; animation-delay: -0.692308s; animation-direction: normal;">cc-by</d:license>
<d:slug class="ld ld-fade" style="transform-origin: 50px 50px 0px; animation-duration: 1.5s; animation-delay: -0.576923s; animation-direction: normal;">flzhgz</d:slug>
</metadata></g></g></g></g><style type="text/css" class="ld ld-fade" style="transform-origin: 50px 50px 0px; animation-duration: 1.5s; animation-delay: -0.461538s; animation-direction: normal;">@keyframes ld-fade {
  0% {
    opacity: 1;
  }
  100% {
    opacity: 0;
  }
}
@-webkit-keyframes ld-fade {
  0% {
    opacity: 1;
  }
  100% {
    opacity: 0;
  }
}
.ld.ld-fade {
  -webkit-animation: ld-fade 1s infinite linear;
  animation: ld-fade 1s infinite linear;
}
</style></svg></svg>