<svg class="ldi-1i0ieq" width="498px"  height="498px"  xmlns="http://www.w3.org/2000/svg" xmlns:xlink="http://www.w3.org/1999/xlink" viewBox="0 0 100 100" preserveAspectRatio="xMidYMid" style="background: none;"><!--?xml version="1.0" encoding="utf-8"?--><!--Generator: Adobe Illustrator 21.0.0, SVG Export Plug-In . SVG Version: 6.00 Build 0)--><svg version="1.1" id="圖層_1" xmlns="http://www.w3.org/2000/svg" xmlns:xlink="http://www.w3.org/1999/xlink" x="0px" y="0px" viewBox="0 0 100 100" style="transform-origin: 50px 50px 0px;" xml:space="preserve"><g style="transform-origin: 50px 50px 0px;"><g style="transform-origin: 50px 50px 0px; transform: scale(1);"><g style="transform-origin: 50px 50px 0px;"><g><g style="transform-origin: 50px 50px 0px;"><g><g class="ld ld-fade" style="transform-origin: 50px 50px 0px; animation-duration: 1.5s; animation-delay: -1.5s; animation-direction: normal;"><path style="fill:#e15b64;stroke:#333;stroke-width:3.5;stroke-miterlimit:10" d="M72.4,63.8H28.3c-1,0-1.8-0.8-1.8-1.8v-7.2 c0-1,0.8-1.8,1.8-1.8h44.1c1,0,1.8,0.8,1.8,1.8v7.2C74.2,62.9,73.4,63.8,72.4,63.8z" fill="rgb(225, 91, 100)" stroke="rgb(51, 51, 51)"></path></g><g class="ld ld-fade" style="transform-origin: 50px 50px 0px; animation-duration: 1.5s; animation-delay: -1.425s; animation-direction: normal;"><path style="fill:#e15b64;stroke:#333;stroke-width:3.5;stroke-miterlimit:10" d="M69.7,63.8H31L36.3,90 c0.3,1.5,1.6,2.5,3.1,2.5h21.9c1.5,0,2.8-1.1,3.1-2.5L69.7,63.8z" fill="rgb(225, 91, 100)" stroke="rgb(51, 51, 51)"></path></g></g></g><g style="transform-origin: 50px 50px 0px;"><g><g style="transform-origin: 50px 50px 0px;"><g><g class="ld ld-fade" style="transform-origin: 50px 50px 0px; animation-duration: 1.5s; animation-delay: -1.35s; animation-direction: normal;"><path style="fill:#333" d="M47.6,52.5l0.7-3c0.4-1,0.6-2,1.1-3c0.8-2,2.2-3.9,3.8-5.4c1.6-1.5,3.4-2.6,5.1-3.5 c1.6-0.9,3.1-1.9,4.5-2.9c1.3-1.1,2.6-2.3,3.7-3.7c0.3-0.4,0.6-0.7,0.8-1.1l0.7-1.1c0.5-0.8,0.9-1.5,1.4-2.3 c0.8-1.6,1.4-3.3,1.5-5c0.1-0.9,0-1.7-0.2-2.5c-0.2-0.8-0.5-1.6-0.9-2.6c1,0.3,1.8,1.2,2.2,2.1c0.4,1,0.6,2,0.7,3 c0.1,2.1-0.4,4.1-1.1,5.9c-0.4,0.9-0.7,1.9-1.2,2.7l-0.7,1.3c-0.2,0.4-0.5,0.9-0.8,1.3c-0.3,0.4-0.5,0.9-0.8,1.3l-0.9,1.2 l-0.5,0.6l-0.5,0.6c-0.3,0.4-0.7,0.7-1.1,1.1c-1.5,1.4-3.1,2.6-4.7,3.7c-1.6,1.1-3,2.1-4,3.3c-2.1,2.3-3,5.5-3.4,9L47.6,52.5z" fill="rgb(51, 51, 51)"></path></g></g></g><g class="ld ld-fade" style="transform-origin: 50px 50px 0px; animation-duration: 1.5s; animation-delay: -1.275s; animation-direction: normal;"><path style="fill:#abbd81;stroke:#333;stroke-width:3.5;stroke-miterlimit:10" d="M83.1,26.5C77.5,33,71.7,33,67.6,29.4 s-5.1-9.3,0.4-15.8s18.3-6.2,18.3-6.2S88.6,20,83.1,26.5z" stroke="rgb(51, 51, 51)" fill="rgb(171, 189, 129)"></path></g></g></g><g style="transform-origin: 50px 50px 0px;"><g><g style="transform-origin: 50px 50px 0px;"><g><g class="ld ld-fade" style="transform-origin: 50px 50px 0px; animation-duration: 1.5s; animation-delay: -1.2s; animation-direction: normal;"><path style="fill:#333" d="M50.6,47l-3.2-5.1c-1.1-1.6-2.2-3.2-3.4-4.6c-1.2-1.3-2.7-2.2-4.5-2.7c-1.8-0.4-3.8-0.3-5.9-0.1 c0.5-0.2,0.9-0.5,1.4-0.7c0.5-0.2,1-0.4,1.5-0.6c0.5-0.2,1-0.3,1.5-0.4c0.5-0.1,1.1-0.1,1.6-0.2c2.2-0.1,4.6,0.8,6.4,2.1 c1.9,1.3,3.4,2.8,4.8,4.3c1.4,1.5,2.8,3.1,4.1,4.6L50.6,47z" fill="rgb(51, 51, 51)"></path></g></g></g><g class="ld ld-fade" style="transform-origin: 50px 50px 0px; animation-duration: 1.5s; animation-delay: -1.125s; animation-direction: normal;"><path style="fill:#abbd81;stroke:#333;stroke-width:3.5;stroke-miterlimit:10" d="M30.2,21.5c8.5,0.3,12.1,4.9,11.9,10.4 s-4.1,9.7-12.7,9.4S13.2,30.8,13.2,30.8S21.6,21.2,30.2,21.5z" stroke="rgb(51, 51, 51)" fill="rgb(171, 189, 129)"></path></g></g></g><metadata xmlns:d="https://loading.io/stock/" class="ld ld-fade" style="transform-origin: 50px 50px 0px; animation-duration: 1.5s; animation-delay: -1.05s; animation-direction: normal;">
<d:name class="ld ld-fade" style="transform-origin: 50px 50px 0px; animation-duration: 1.5s; animation-delay: -0.975s; animation-direction: normal;">potting</d:name>
<d:tags class="ld ld-fade" style="transform-origin: 50px 50px 0px; animation-duration: 1.5s; animation-delay: -0.9s; animation-direction: normal;">potting,potted plants,pottery,bonsai,pots,basin,bowl,tub,plant,cultivate</d:tags>
<d:license class="ld ld-fade" style="transform-origin: 50px 50px 0px; animation-duration: 1.5s; animation-delay: -0.825s; animation-direction: normal;">cc-by</d:license>
<d:slug class="ld ld-fade" style="transform-origin: 50px 50px 0px; animation-duration: 1.5s; animation-delay: -0.75s; animation-direction: normal;">1i0ieq</d:slug>
</metadata></g></g></g></g><style type="text/css" class="ld ld-fade" style="transform-origin: 50px 50px 0px; animation-duration: 1.5s; animation-delay: -0.675s; animation-direction: normal;">@keyframes ld-fade {
  0% {
    opacity: 1;
  }
  100% {
    opacity: 0;
  }
}
@-webkit-keyframes ld-fade {
  0% {
    opacity: 1;
  }
  100% {
    opacity: 0;
  }
}
.ld.ld-fade {
  -webkit-animation: ld-fade 1s infinite linear;
  animation: ld-fade 1s infinite linear;
}
</style></svg></svg>