<svg class="ldi-5ypxkj" width="498px"  height="498px"  xmlns="http://www.w3.org/2000/svg" xmlns:xlink="http://www.w3.org/1999/xlink" viewBox="0 0 100 100" preserveAspectRatio="xMidYMid" style="background: none;"><!--?xml version="1.0" encoding="utf-8"?--><!--Generator: Adobe Illustrator 21.0.0, SVG Export Plug-In . SVG Version: 6.00 Build 0)--><svg version="1.1" id="圖層_1" xmlns="http://www.w3.org/2000/svg" xmlns:xlink="http://www.w3.org/1999/xlink" x="0px" y="0px" viewBox="0 0 100 100" style="transform-origin: 50px 50px 0px;" xml:space="preserve"><g style="transform-origin: 50px 50px 0px;"><g style="transform-origin: 50px 50px 0px; transform: scale(1);"><g style="transform-origin: 50px 50px 0px;"><g><g style="transform-origin: 50px 50px 0px;"><g><g class="ld ld-fade" style="transform-origin: 50px 50px 0px; animation-duration: 1.5s; animation-delay: -1.5s; animation-direction: normal;"><path style="fill:none;stroke:#333;stroke-width:3.5;stroke-miterlimit:10" d="M51.7,56.3c-1.4-6.3-1.9-13.5,1.9-18.8 c1.7-2.4,4.1-4.2,6.2-6.2c3.9-3.9,6.7-9.5,4.8-14.6c-1.7-4.6-7-7.4-12.1-7.1c-5.1,0.3-9.7,3.4-12.6,7.3" stroke="rgb(51, 51, 51)"></path></g><g class="ld ld-fade" style="transform-origin: 50px 50px 0px; animation-duration: 1.5s; animation-delay: -1.4s; animation-direction: normal;"><path style="fill:#abbd81;stroke:#333;stroke-width:3.5;stroke-miterlimit:10" d="M55.3,13.7c3.4,4.2,2.1,7.7-3.3,11.7 s-9.3,4.3-12.7,0.1s-2.1-7.7,3.3-11.7S51.9,9.5,55.3,13.7z" stroke="rgb(51, 51, 51)" fill="rgb(171, 189, 129)"></path></g></g></g><g style="transform-origin: 50px 50px 0px;"><g><g class="ld ld-fade" style="transform-origin: 50px 50px 0px; animation-duration: 1.5s; animation-delay: -1.3s; animation-direction: normal;"><path style="fill:#e0e0e0;stroke:#333;stroke-width:3.5;stroke-miterlimit:10" d="M60.2,90.4H39.8c-7.4,0-13.4-6-13.4-13.4 V62.3h47.3V77C73.6,84.4,67.6,90.4,60.2,90.4z" stroke="rgb(51, 51, 51)" fill="rgb(224, 224, 224)"></path></g><g class="ld ld-fade" style="transform-origin: 50px 50px 0px; animation-duration: 1.5s; animation-delay: -1.2s; animation-direction: normal;"><path style="fill:#e0e0e0;stroke:#333;stroke-width:3.5;stroke-miterlimit:10" d="M75.9,64.2H24.1c-2.6,0-4.7-2.1-4.7-4.7v-3.8 c0-2.6,2.1-4.7,4.7-4.7h51.9c2.6,0,4.7,2.1,4.7,4.7v3.8C80.6,62.1,78.5,64.2,75.9,64.2z" stroke="rgb(51, 51, 51)" fill="rgb(224, 224, 224)"></path></g></g></g><metadata xmlns:d="https://loading.io/stock/" class="ld ld-fade" style="transform-origin: 50px 50px 0px; animation-duration: 1.5s; animation-delay: -1.1s; animation-direction: normal;">
<d:name class="ld ld-fade" style="transform-origin: 50px 50px 0px; animation-duration: 1.5s; animation-delay: -1s; animation-direction: normal;">sprout</d:name>
<d:tags class="ld ld-fade" style="transform-origin: 50px 50px 0px; animation-duration: 1.5s; animation-delay: -0.9s; animation-direction: normal;">sprout,offshoot,seed,grow,newbie,startup,begin,spring up,bud,plant,pot</d:tags>
<d:license class="ld ld-fade" style="transform-origin: 50px 50px 0px; animation-duration: 1.5s; animation-delay: -0.8s; animation-direction: normal;">cc-by</d:license>
<d:slug class="ld ld-fade" style="transform-origin: 50px 50px 0px; animation-duration: 1.5s; animation-delay: -0.7s; animation-direction: normal;">5ypxkj</d:slug>
</metadata></g></g></g></g><style type="text/css" class="ld ld-fade" style="transform-origin: 50px 50px 0px; animation-duration: 1.5s; animation-delay: -0.6s; animation-direction: normal;">@keyframes ld-fade {
  0% {
    opacity: 1;
  }
  100% {
    opacity: 0;
  }
}
@-webkit-keyframes ld-fade {
  0% {
    opacity: 1;
  }
  100% {
    opacity: 0;
  }
}
.ld.ld-fade {
  -webkit-animation: ld-fade 1s infinite linear;
  animation: ld-fade 1s infinite linear;
}
</style></svg></svg>