<svg class="ldi-uza65s" width="498px"  height="498px"  xmlns="http://www.w3.org/2000/svg" xmlns:xlink="http://www.w3.org/1999/xlink" viewBox="0 0 100 100" preserveAspectRatio="xMidYMid" style="background: none;"><!--?xml version="1.0" encoding="utf-8"?--><!--Generator: Adobe Illustrator 21.0.0, SVG Export Plug-In . SVG Version: 6.00 Build 0)--><svg version="1.1" id="圖層_1" xmlns="http://www.w3.org/2000/svg" xmlns:xlink="http://www.w3.org/1999/xlink" x="0px" y="0px" viewBox="0 0 100 100" style="transform-origin: 50px 50px 0px;" xml:space="preserve"><g style="transform-origin: 50px 50px 0px;"><g style="transform-origin: 50px 50px 0px; transform: scale(1);"><g style="transform-origin: 50px 50px 0px;"><g><g style="transform-origin: 50px 50px 0px;"><g><g class="ld ld-fade" style="transform-origin: 50px 50px 0px; animation-duration: 1.5s; animation-delay: -1.5s; animation-direction: normal;"><path style="fill:#f8b26a;stroke:#333;stroke-width:3;stroke-linecap:round;stroke-linejoin:round;stroke-miterlimit:10" d=" M48.4,80.1h-8.5c-7.7,0-14-6.3-14-14v0h8.5C42.2,66.1,48.4,72.4,48.4,80.1L48.4,80.1z" fill="rgb(248, 178, 106)" stroke="rgb(51, 51, 51)"></path></g><g class="ld ld-fade" style="transform-origin: 50px 50px 0px; animation-duration: 1.5s; animation-delay: -1.45946s; animation-direction: normal;"><path style="opacity: 0.1; stroke: rgb(0, 0, 0); stroke-width: 3; stroke-linecap: round; stroke-linejoin: round; stroke-miterlimit: 10; fill: rgb(0, 0, 0);" d=" M47.8,76.1h-8.2c-6.4,0-11.8-4.2-13.7-10c0,7.7,6.3,14,14,14h8.5C48.4,78.7,48.2,77.4,47.8,76.1z" fill="rgb(0, 0, 0)" stroke="rgb(0, 0, 0)"></path></g></g></g><g style="transform-origin: 50px 50px 0px;"><g><g class="ld ld-fade" style="transform-origin: 50px 50px 0px; animation-duration: 1.5s; animation-delay: -1.41892s; animation-direction: normal;"><path style="fill:#f47e60;stroke:#333;stroke-width:3;stroke-linecap:round;stroke-linejoin:round;stroke-miterlimit:10" d=" M51.6,80.1h8.5c7.7,0,14-6.3,14-14v0h-8.5C57.8,66.1,51.6,72.4,51.6,80.1L51.6,80.1z" stroke="rgb(51, 51, 51)" fill="rgb(244, 126, 96)"></path></g><g class="ld ld-fade" style="transform-origin: 50px 50px 0px; animation-duration: 1.5s; animation-delay: -1.37838s; animation-direction: normal;"><path style="opacity: 0.1; stroke: rgb(0, 0, 0); stroke-width: 3; stroke-linecap: round; stroke-linejoin: round; stroke-miterlimit: 10; fill: rgb(0, 0, 0);" d=" M60.4,76.1h-8.2c-0.4,1.3-0.6,2.6-0.6,4h8.5c7.7,0,14-6.3,14-14C72.2,71.9,66.8,76.1,60.4,76.1z" fill="rgb(0, 0, 0)" stroke="rgb(0, 0, 0)"></path></g></g></g><g style="transform-origin: 50px 50px 0px;"><g><g class="ld ld-fade" style="transform-origin: 50px 50px 0px; animation-duration: 1.5s; animation-delay: -1.33784s; animation-direction: normal;"><path style="fill:#f8b26a;stroke:#333;stroke-width:3;stroke-linecap:round;stroke-linejoin:round;stroke-miterlimit:10" d=" M48.4,65h-8.5c-7.7,0-14-6.3-14-14v0h8.5C42.2,51.1,48.4,57.3,48.4,65L48.4,65z" fill="rgb(248, 178, 106)" stroke="rgb(51, 51, 51)"></path></g><g class="ld ld-fade" style="transform-origin: 50px 50px 0px; animation-duration: 1.5s; animation-delay: -1.2973s; animation-direction: normal;"><path style="opacity: 0.1; stroke: rgb(0, 0, 0); stroke-width: 3; stroke-linecap: round; stroke-linejoin: round; stroke-miterlimit: 10; fill: rgb(0, 0, 0);" d=" M47.7,60.6h-8c-6.2,0-11.6-4-13.5-9.6h-0.2c0,7.7,6.3,14,14,14h8.5C48.4,63.5,48.2,62,47.7,60.6z" fill="rgb(0, 0, 0)" stroke="rgb(0, 0, 0)"></path></g></g></g><g style="transform-origin: 50px 50px 0px;"><g><g class="ld ld-fade" style="transform-origin: 50px 50px 0px; animation-duration: 1.5s; animation-delay: -1.25676s; animation-direction: normal;"><path style="fill:#f47e60;stroke:#333;stroke-width:3;stroke-linecap:round;stroke-linejoin:round;stroke-miterlimit:10" d=" M51.6,65h8.5c7.7,0,14-6.3,14-14v0h-8.5C57.8,51.1,51.6,57.3,51.6,65L51.6,65z" stroke="rgb(51, 51, 51)" fill="rgb(244, 126, 96)"></path></g><g class="ld ld-fade" style="transform-origin: 50px 50px 0px; animation-duration: 1.5s; animation-delay: -1.21622s; animation-direction: normal;"><path style="opacity: 0.1; stroke: rgb(0, 0, 0); stroke-width: 3; stroke-linecap: round; stroke-linejoin: round; stroke-miterlimit: 10; fill: rgb(0, 0, 0);" d=" M60.4,60.6h-8c-0.5,1.4-0.7,2.9-0.7,4.4h8.5c7.7,0,14-6.3,14-14h-0.2C71.9,56.6,66.6,60.6,60.4,60.6z" fill="rgb(0, 0, 0)" stroke="rgb(0, 0, 0)"></path></g></g></g><g style="transform-origin: 50px 50px 0px;"><g><g class="ld ld-fade" style="transform-origin: 50px 50px 0px; animation-duration: 1.5s; animation-delay: -1.17568s; animation-direction: normal;"><path style="fill:#f8b26a;stroke:#333;stroke-width:3;stroke-linecap:round;stroke-linejoin:round;stroke-miterlimit:10" d=" M48.4,50h-8.5c-7.7,0-14-6.3-14-14v0h8.5C42.2,36,48.4,42.2,48.4,50L48.4,50z" fill="rgb(248, 178, 106)" stroke="rgb(51, 51, 51)"></path></g><g class="ld ld-fade" style="transform-origin: 50px 50px 0px; animation-duration: 1.5s; animation-delay: -1.13514s; animation-direction: normal;"><path style="opacity: 0.1; stroke: rgb(0, 0, 0); stroke-width: 3; stroke-linecap: round; stroke-linejoin: round; stroke-miterlimit: 10; fill: rgb(0, 0, 0);" d=" M47.5,45.1h-7.9c-6.1,0-11.3-3.8-13.4-9.1h-0.3v0c0,7.7,6.3,14,14,14h8.5C48.4,48.3,48.1,46.6,47.5,45.1z" fill="rgb(0, 0, 0)" stroke="rgb(0, 0, 0)"></path></g></g></g><g style="transform-origin: 50px 50px 0px;"><g><g class="ld ld-fade" style="transform-origin: 50px 50px 0px; animation-duration: 1.5s; animation-delay: -1.09459s; animation-direction: normal;"><path style="fill:#f47e60;stroke:#333;stroke-width:3;stroke-linecap:round;stroke-linejoin:round;stroke-miterlimit:10" d=" M51.6,50h8.5c7.7,0,14-6.3,14-14v0h-8.5C57.8,36,51.6,42.2,51.6,50L51.6,50z" stroke="rgb(51, 51, 51)" fill="rgb(244, 126, 96)"></path></g><g class="ld ld-fade" style="transform-origin: 50px 50px 0px; animation-duration: 1.5s; animation-delay: -1.05405s; animation-direction: normal;"><path style="opacity: 0.1; stroke: rgb(0, 0, 0); stroke-width: 3; stroke-linecap: round; stroke-linejoin: round; stroke-miterlimit: 10; fill: rgb(0, 0, 0);" d=" M60.4,45.1h-7.9c-0.6,1.5-0.9,3.2-0.9,4.9h8.5c7.7,0,14-6.3,14-14v0h-0.3C71.6,41.3,66.4,45.1,60.4,45.1z" fill="rgb(0, 0, 0)" stroke="rgb(0, 0, 0)"></path></g></g></g><g style="transform-origin: 50px 50px 0px;"><g><g class="ld ld-fade" style="transform-origin: 50px 50px 0px; animation-duration: 1.5s; animation-delay: -1.01351s; animation-direction: normal;"><path style="fill:#f8b26a;stroke:#333;stroke-width:3;stroke-linecap:round;stroke-linejoin:round;stroke-miterlimit:10" d=" M48.4,34.9h-8.5c-7.7,0-14-6.3-14-14v0h8.5C42.2,20.9,48.4,27.2,48.4,34.9L48.4,34.9z" fill="rgb(248, 178, 106)" stroke="rgb(51, 51, 51)"></path></g><g class="ld ld-fade" style="transform-origin: 50px 50px 0px; animation-duration: 1.5s; animation-delay: -0.972973s; animation-direction: normal;"><path style="opacity: 0.1; stroke: rgb(0, 0, 0); stroke-width: 3; stroke-linecap: round; stroke-linejoin: round; stroke-miterlimit: 10; fill: rgb(0, 0, 0);" d=" M47.4,29.6h-7.7c-5.9,0-11-3.6-13.2-8.7h-0.5c0,7.7,6.3,14,14,14h8.5C48.4,33,48,31.2,47.4,29.6z" fill="rgb(0, 0, 0)" stroke="rgb(0, 0, 0)"></path></g></g></g><g style="transform-origin: 50px 50px 0px;"><g><g class="ld ld-fade" style="transform-origin: 50px 50px 0px; animation-duration: 1.5s; animation-delay: -0.932432s; animation-direction: normal;"><path style="fill:#f47e60;stroke:#333;stroke-width:3;stroke-linecap:round;stroke-linejoin:round;stroke-miterlimit:10" d=" M51.6,34.9h8.5c7.7,0,14-6.3,14-14v0h-8.5C57.8,20.9,51.6,27.2,51.6,34.9L51.6,34.9z" stroke="rgb(51, 51, 51)" fill="rgb(244, 126, 96)"></path></g><g class="ld ld-fade" style="transform-origin: 50px 50px 0px; animation-duration: 1.5s; animation-delay: -0.891892s; animation-direction: normal;"><path style="opacity: 0.1; stroke: rgb(0, 0, 0); stroke-width: 3; stroke-linecap: round; stroke-linejoin: round; stroke-miterlimit: 10; fill: rgb(0, 0, 0);" d=" M60.4,29.6h-7.7c-0.7,1.6-1,3.4-1,5.3h8.5c7.7,0,14-6.3,14-14h-0.5C71.4,26,66.3,29.6,60.4,29.6z" fill="rgb(0, 0, 0)" stroke="rgb(0, 0, 0)"></path></g></g></g><g style="transform-origin: 50px 50px 0px;"><g><g class="ld ld-fade" style="transform-origin: 50px 50px 0px; animation-duration: 1.5s; animation-delay: -0.851351s; animation-direction: normal;"><path style="fill:#f8b26a;stroke:#333;stroke-width:3;stroke-linecap:round;stroke-linejoin:round;stroke-miterlimit:10" d=" M57,17.5c0,6.9-7,12.5-7,12.5s-7-5.6-7-12.5S50,5,50,5S57,10.6,57,17.5z" fill="rgb(248, 178, 106)" stroke="rgb(51, 51, 51)"></path></g><g class="ld ld-fade" style="transform-origin: 50px 50px 0px; animation-duration: 1.5s; animation-delay: -0.810811s; animation-direction: normal;"><path style="opacity: 0.1; stroke: rgb(0, 0, 0); stroke-width: 3; stroke-linecap: round; stroke-linejoin: round; stroke-miterlimit: 10; fill: rgb(0, 0, 0);" d=" M50,24.5c0,0-5.1-4.1-6.7-9.6c-0.2,0.8-0.3,1.7-0.3,2.5c0,6.9,7,12.5,7,12.5s7-5.6,7-12.5c0-0.9-0.1-1.7-0.3-2.5 C55.1,20.5,50,24.5,50,24.5z" fill="rgb(0, 0, 0)" stroke="rgb(0, 0, 0)"></path></g></g></g><g class="ld ld-fade" style="transform-origin: 50px 50px 0px; animation-duration: 1.5s; animation-delay: -0.77027s; animation-direction: normal;"><line style="fill:none;stroke:#333;stroke-width:3;stroke-linecap:round;stroke-linejoin:round;stroke-miterlimit:10" x1="50" y1="30" x2="50" y2="95" stroke="rgb(51, 51, 51)"></line></g><metadata xmlns:d="https://loading.io/stock/" class="ld ld-fade" style="transform-origin: 50px 50px 0px; animation-duration: 1.5s; animation-delay: -0.72973s; animation-direction: normal;">
<d:name class="ld ld-fade" style="transform-origin: 50px 50px 0px; animation-duration: 1.5s; animation-delay: -0.689189s; animation-direction: normal;">wheat</d:name>
<d:tags class="ld ld-fade" style="transform-origin: 50px 50px 0px; animation-duration: 1.5s; animation-delay: -0.648649s; animation-direction: normal;">wheat,rice,seed,food,farm,agriculture,barn,granary</d:tags>
<d:license class="ld ld-fade" style="transform-origin: 50px 50px 0px; animation-duration: 1.5s; animation-delay: -0.608108s; animation-direction: normal;">cc-by</d:license>
<d:slug class="ld ld-fade" style="transform-origin: 50px 50px 0px; animation-duration: 1.5s; animation-delay: -0.567568s; animation-direction: normal;">uza65s</d:slug>
</metadata></g></g></g></g><style type="text/css" class="ld ld-fade" style="transform-origin: 50px 50px 0px; animation-duration: 1.5s; animation-delay: -0.527027s; animation-direction: normal;">@keyframes ld-fade {
  0% {
    opacity: 1;
  }
  100% {
    opacity: 0;
  }
}
@-webkit-keyframes ld-fade {
  0% {
    opacity: 1;
  }
  100% {
    opacity: 0;
  }
}
.ld.ld-fade {
  -webkit-animation: ld-fade 1s infinite linear;
  animation: ld-fade 1s infinite linear;
}
</style></svg></svg>